<!--?xml version="1.0" encoding="utf-8"?-->
<!-- Generator: Adobe Illustrator 19.1.1, SVG Export Plug-In . SVG Version: 6.00 Build 0)  -->
<svg version="1.1" id="_x31_0" xmlns="http://www.w3.org/2000/svg" xmlns:xlink="http://www.w3.org/1999/xlink" x="0px" y="0px" viewBox="0 0 512 512" style="width: 256px; height: 256px; opacity: 1;" xml:space="preserve">
<style type="text/css">
	.st0{fill:#374149;}
</style>
<g>
	<path class="st0" d="M497.183,125.363L428.145,5.141C426.316,1.961,422.93,0,419.262,0H92.738c-3.668,0-7.059,1.961-8.883,5.145
		l-77.726,135.5v355.98c0,8.492,6.883,15.375,15.375,15.375h468.992c8.492,0,15.375-6.883,15.375-15.375v-355.98L497.183,125.363z
		 M194.183,47.805l15.039,0.035l-16.75,84.504h-86.348l-25.695-0.051l-12.543-0.106l48.398-84.402L194.183,47.805z M199.09,273.195
		h113.813c4.855,0,8.793-3.938,8.793-8.793V163.918h134.293v296.622v1.656H56.008V163.918h134.293v100.485
		C190.301,269.258,194.238,273.195,199.09,273.195z M444.015,132.344H319.602l-14.149-71.059l-2.656-13.496l92.918-0.004
		l32.266,56.278l10.848,19.027L444.015,132.344z" style="fill: rgb(51, 51, 51);"></path>
	<path class="st0" d="M302.844,317.402c0.515,10.305,3,20.203,7.195,28.617l1.015,1.969c6.914,12.86,17.797,21.93,31.508,26.25
		c0.828,0.258,1.672,0.508,2.523,0.734l2.766,0.672c1.57,0.343,3.172,0.64,4.821,0.874v35.618
		c-10.094,1.313-19.383,4.562-26.946,9.438c-1.023,0.648-1.484,1.875-1.141,3.046c0.344,1.18,1.391,1.977,2.618,1.977h71.078
		c1.227,0,2.29-0.805,2.626-1.992c0.343-1.164-0.126-2.39-1.133-3.023c-7.562-4.867-16.844-8.126-26.938-9.446v-35.618
		c2.734-0.39,5.445-0.961,8.172-1.726c0.804-0.218,1.602-0.461,2.374-0.71l2.344-0.821c13.203-4.875,23.554-14.438,30.054-27.882
		l0.836-1.821l0.883-2.086c2.398-5.93,3.992-12.375,4.774-19.446l0.195-2.094c0.07-0.836,0.125-1.672,0.172-2.61v-1.602h-57.68
		l-14.07-0.039l0.008,0.039h-0.164l2.851,11.321l-13.906,10.274l2.57,7.706l2.141,6.86l-11.746-13.922l-2.902-3.5l10.086-4.785
		l-0.633-1.422c0,0-2.625-5.961-5.289-11.617l-0.43-0.914h-29.215l-1.336-0.007v0.007h-0.16L302.844,317.402z" style="fill: rgb(51, 51, 51);"></path>
</g>
</svg>
