<!--?xml version="1.0" encoding="utf-8"?-->
<!-- Generator: Adobe Illustrator 19.1.1, SVG Export Plug-In . SVG Version: 6.00 Build 0)  -->
<svg version="1.1" id="_x31_0" xmlns="http://www.w3.org/2000/svg" xmlns:xlink="http://www.w3.org/1999/xlink" x="0px" y="0px" viewBox="0 0 512 512" style="width: 256px; height: 256px; opacity: 1;" xml:space="preserve">
<style type="text/css">
	.st0{fill:#374149;}
</style>
<g>
	<path class="st0" d="M107.242,79.465c9.453,4.922,28.469,8.297,50.434,8.297c31.371,0,56.805-10.25,56.805-15.324
		c0-5.082-25.434-15.332-56.805-15.332c-21.965,0-40.981,3.375-50.434,8.297c-9.45-4.922-28.469-8.297-50.438-8.297
		C25.434,57.106,0,67.356,0,72.438c0,5.074,25.434,15.324,56.805,15.324C78.774,87.762,97.793,84.387,107.242,79.465z" style="fill: rgb(51, 51, 51);"></path>
	<path class="st0" d="M455.195,57.106c-21.965,0-40.98,3.375-50.43,8.297c-9.453-4.922-28.473-8.297-50.442-8.297
		c-31.367,0-56.801,10.25-56.801,15.332c0,5.074,25.434,15.324,56.801,15.324c21.969,0,40.989-3.374,50.442-8.297
		c9.45,4.922,28.465,8.297,50.43,8.297c31.371,0,56.805-10.25,56.805-15.324C512,67.356,486.566,57.106,455.195,57.106z" style="fill: rgb(51, 51, 51);"></path>
	<path class="st0" d="M453.504,150.973h-0.558c-10-1.282-19.524-2.879-28.801-4.797v-10.242c0-6.398-4.082-11.84-9.84-13.84v-19.277
		c0-2.641-2.16-4.883-4.801-4.883h-9.442c-2.641,0-4.879,2.242-4.879,4.883v19.359c-5.418,1.828-9.202,6.828-9.621,12.766
		c-0.031,0.285-0.141,0.539-0.156,0.828c-21.754-6.801-47.742-15.515-47.742-15.515c-27.922-7.758-53.922-11.438-81.68-11.438
		c-27.839,0-53.762,3.679-81.762,11.438c0,0-21.832,7.301-42.258,13.758c-1.797,0.554-3.586,1.102-5.348,1.637
		c-0.101-6.219-4.164-11.559-9.835-13.473v-19.359c0-2.641-2.157-4.883-4.879-4.883h-9.359c-2.719,0-4.879,2.242-4.879,4.883v19.277
		c-5.68,2-9.84,7.442-9.84,13.84v10.242c-9.199,1.918-18.878,3.515-28.878,4.797h-0.481c-7.203,1.121-13.519,5.523-17.043,11.762
		c-3.519,6.402-3.839,14.082-0.878,20.801l6.402,14.641l5.519,12.797h36.398c27.442,0,64,9.844,90.398,18.398
		c8,11.282,14.961,20.562,21.684,28.883c5.836,7.117,14.476,11.281,23.679,11.281h62.797c9.203,0,17.762-4.164,23.602-11.281
		c6.801-8.321,13.84-17.758,21.758-28.962c26.402-8.476,62.882-18.32,90.242-18.32h36.398l5.524-12.797l6.398-14.641
		c2.961-6.718,2.64-14.398-0.879-20.801C466.946,156.496,460.703,152.094,453.504,150.973z M177.504,141.496v40.918
		c0,3.84,3.039,6.878,6.879,6.878h5.359c3.84,0,6.882-3.038,6.882-6.878v-45.84c17.52-3.922,36.797-6.481,59.359-6.481
		c22.481,0,41.758,2.559,59.278,6.481v45.84c0,3.84,3.122,6.878,6.883,6.878h5.438c3.762,0,6.801-3.038,6.801-6.878v-32.207
		l0.042-8.738l9.238,2.707c0.481,0.156,0.879,0.238,1.282,0.398c0.476,0.16,0.878,0.32,1.359,0.398v33.203
		c0,3.836,3.039,6.879,6.797,6.879h5.442c3.762,0,6.878-3.043,6.878-6.879v-7.684l0.402-19.094c0.375,0.153,0.746,0.301,1.122,0.379
		c6.238,2.156,12.316,4.156,18.398,6.078c1.438,0.558,2.961,1.038,4.398,1.437c3.762,1.122,7.441,2.242,11.281,3.282
		c15.199,4.078,31.84,7.282,49.282,9.438c0.878,0.164,1.359,0.641,1.519,1.043c0.321,0.402,0.481,1.038,0.078,1.839l-6.398,14.883
		h-22.481c-53.922,0-118.398,26.477-130.718,31.359c-15.043,6.078-25.922,10.398-36.321,10.477
		c-10.402-0.078-21.359-4.398-36.402-10.477c-12.321-4.882-76.719-31.359-130.719-31.359H66.465l-6.481-14.883
		c-0.32-0.801-0.16-1.438,0.078-1.839c0.242-0.402,0.719-0.879,1.52-1.043c17.441-2.156,34.082-5.359,49.363-9.438
		c3.758-1.039,7.519-2.16,11.199-3.282c1.519-0.398,2.957-0.878,4.48-1.437c6-1.922,12.078-3.922,18.321-6.078
		c0.476-0.086,0.797-0.242,1.277-0.406c0.082,0,0.161-0.078,0.321-0.078v26.883c0,3.836,3.039,6.879,6.801,6.879h5.438
		c3.762,0,6.882-3.043,6.882-6.879v-33.203c0.398-0.078,0.801-0.238,1.282-0.398c0.398-0.16,0.878-0.242,1.277-0.398l7.371-2.16
		L177.504,141.496z" style="fill: rgb(51, 51, 51);"></path>
	<path class="st0" d="M255.957,213.09c8.43-0.113,17.234-5.015,28.246-12.262c2.586-1.66,5.262-3.406,8.129-5.277l-0.234-0.004
		c0.082-0.055,0.156-0.102,0.234-0.16h-39.718l-32.938-0.133c0.07,0.046,0.129,0.09,0.199,0.133h-0.29
		C234.625,205.566,245.547,212.95,255.957,213.09z" style="fill: rgb(51, 51, 51);"></path>
	<path class="st0" d="M126.625,341.371V232.894c-7.582-1.562-15.129-2.73-22.328-3.469c-0.488-0.062-1.031-0.156-1.512-0.21v0.019
		c-0.05-0.004-0.105-0.015-0.16-0.019v136.156c0,9.602,7.758,17.363,17.359,17.363h17.199v-25.363
		C130.946,354.653,126.625,348.574,126.625,341.371z" style="fill: rgb(51, 51, 51);"></path>
	<path class="st0" d="M409.262,229.379v-0.164c-7.679,0.718-15.758,2-24,3.679v108.477c0,7.203-4.316,13.282-10.558,16v25.125v0.078
		l0,0v0.16h17.199c9.602,0,17.359-7.762,17.359-17.363V240.39l0.016-11.015C409.274,229.375,409.27,229.375,409.262,229.379z" style="fill: rgb(51, 51, 51);"></path>
	<path class="st0" d="M344.703,294.574h-177.52c-3.281,0-6,2.718-6,6v58.16v24v66.16c0,3.282,2.719,6,6,6h177.52
		c3.281,0,6-2.718,6-6v-66.16v-24v-58.16C350.703,297.293,347.984,294.574,344.703,294.574z M228.246,318.394
		c0.687,0.258,1.293,0.641,1.804,1.122c0.207,0.195,0.399,0.402,0.574,0.625c0.45,0.574,0.782,1.215,0.977,1.91
		c0.062,0.226,0.106,0.449,0.137,0.675c0.11,0.734,0.07,1.485-0.149,2.23c-0.062,0.215-0.148,0.422-0.238,0.63
		c-0.156,0.363-0.316,0.726-0.57,1.066l-32.637,46.082c-3.122,4.321-9.922,2.16-9.922-3.199v-46c0-3.039,2.402-5.523,5.442-5.523
		h32.641c0.406,0,0.778,0.086,1.152,0.164C227.726,318.234,227.988,318.301,228.246,318.394z" style="fill: rgb(51, 51, 51);"></path>
</g>
</svg>
