<!--?xml version="1.0" encoding="utf-8"?-->
<!-- Generator: Adobe Illustrator 18.1.1, SVG Export Plug-In . SVG Version: 6.00 Build 0)  -->

<svg version="1.1" id="_x31_0" xmlns="http://www.w3.org/2000/svg" xmlns:xlink="http://www.w3.org/1999/xlink" x="0px" y="0px" viewBox="0 0 512 512" style="width: 256px; height: 256px; opacity: 1;" xml:space="preserve">
<style type="text/css">
	.st0{fill:#374149;}
</style>
<g>
	<path class="st0" d="M74.77,235.083c-2.477-2.398-5.574-4.024-8.985-4.645c-5.5-1.008-11.308,0.774-15.254,4.722l-5.422,5.344
		c-3.25,3.25-5.031,7.59-5.031,12.156c0,4.57,1.781,8.906,5.031,12.157l57.847,58.93c2.477,2.558,3.794,6.042,3.481,9.605
		c-0.23,3.563-2.008,6.813-4.875,8.906l-2.535,2.531l-0.183,0.168l-2.394-3.011l-63.727-64.813
		c-6.43-6.508-10.07-15.18-10.07-24.473c0-9.214,3.641-17.886,10.07-24.469l5.496-5.422c6.219-6.218,14.528-9.789,23.305-10.008
		c0.203-0.004,0.394-0.058,0.602-0.058h0.489V133.95c0-18.43-15.024-33.454-33.531-33.454C17.309,100.497,0,107.978,0,129.575
		v122.777c0,24.161,7.359,47.313,21.145,67.137l67.679,96.954l7.703,77.039h85.723v-77.039v-28.809
		c0-27.722-10.684-53.973-30.122-73.718L74.77,235.083z" style="fill: rgb(51, 51, 51);"></path>
	<path class="st0" d="M482.922,100.497c-18.507,0-33.531,15.023-33.531,33.454v78.754h0.547c8.98,0.078,17.5,3.714,23.847,10.066
		l5.497,5.422c6.43,6.582,10.07,15.254,10.07,24.469c0,9.293-3.64,17.965-10.07,24.473l-63.727,64.813l-2.254,2.836l-0.152,0.179
		l-2.707-2.703c-2.863-2.094-4.645-5.343-4.875-8.906c-0.313-3.562,1.004-7.046,3.481-9.605l57.847-58.93
		c3.254-3.25,5.035-7.586,5.035-12.157c0-4.566-1.781-8.906-5.035-12.156l-5.422-5.344c-3.95-3.949-9.754-5.73-15.254-4.722
		c-3.41,0.621-6.507,2.246-8.984,4.645l-77.359,78.832c-19.438,19.746-30.122,45.996-30.122,73.718v28.809v77.039h85.723
		l7.703-77.039l67.679-96.954C504.645,299.665,512,276.513,512,252.352V129.575C512,107.978,494.695,100.497,482.922,100.497z" style="fill: rgb(51, 51, 51);"></path>
	<path class="st0" d="M245.054,150.294l-91.218-52.641c-4.75-2.738-10.684,0.688-10.684,6.172v104.973
		c0,2.547,1.356,4.898,3.559,6.168l91.222,52.672c4.746,2.742,10.683-0.687,10.683-6.168V156.462
		C248.617,153.915,247.258,151.563,245.054,150.294z" style="fill: rgb(51, 51, 51);"></path>
	<path class="st0" d="M351.91,83.845c0.394-0.325,0.746-0.676,1.054-1.066c0.496-0.633,0.855-1.266,1.11-2
		c0.113-0.332,0.199-0.672,0.262-1.024c0.156-0.859,0.156-1.664,0-2.523c-0.062-0.347-0.149-0.687-0.262-1.015
		c-0.254-0.738-0.614-1.375-1.114-2.008c-0.309-0.387-0.652-0.734-1.046-1.055c-0.305-0.254-0.454-0.617-0.817-0.828l-91.515-52.851
		c-2.203-1.274-4.918-1.274-7.126,0l-91.511,52.851c-0.363,0.211-0.508,0.57-0.817,0.825c-0.394,0.32-0.738,0.671-1.05,1.058
		c-0.496,0.637-0.86,1.27-1.11,2.008c-0.118,0.328-0.199,0.664-0.262,1.015c-0.157,0.859-0.157,1.668,0,2.531
		c0.066,0.348,0.148,0.684,0.262,1.016c0.25,0.734,0.614,1.367,1.11,2c0.312,0.39,0.656,0.742,1.054,1.062
		c0.305,0.254,0.45,0.613,0.813,0.824l91.515,52.82c2.203,1.27,4.918,1.27,7.122,0l91.515-52.82
		C351.457,84.454,351.602,84.094,351.91,83.845z" style="fill: rgb(51, 51, 51);"></path>
	<path class="st0" d="M368.851,208.802V103.825c0-5.48-5.934-8.91-10.683-6.168l-91.18,52.637c-2.206,1.27-3.562,3.622-3.562,6.168
		v105.004c0,5.485,5.938,8.91,10.684,6.168l91.183-52.668C367.496,213.696,368.851,211.345,368.851,208.802z" style="fill: rgb(51, 51, 51);"></path>
</g>
</svg>
